HIERARCHY
ROOT Hips
{
	OFFSET -0.087744 88.518600 4.106688
	CHANNELS 6 Xposition Yposition Zposition Zrotation Yrotation Xrotation 
	JOINT Spine
	{
		OFFSET 0.000000 8.814246 -2.080107
		CHANNELS 3 Zrotation Yrotation Xrotation
		JOINT Spine1
		{
			OFFSET -0.000000 8.844141 -0.000000
			CHANNELS 3 Zrotation Yrotation Xrotation
			JOINT Spine2
			{
				OFFSET 0.000000 11.682268 0.000000
				CHANNELS 3 Zrotation Yrotation Xrotation
				JOINT Spine3
				{
					OFFSET 0.000000 11.746700 0.000000
					CHANNELS 3 Zrotation Yrotation Xrotation
					JOINT Neck
					{
						OFFSET 0.000000 17.658264 -0.000000
						CHANNELS 3 Zrotation Yrotation Xrotation
						JOINT Neck1
						{
							OFFSET -0.000000 5.101515 -0.000000
							CHANNELS 3 Zrotation Yrotation Xrotation
							JOINT Head
							{
								OFFSET -0.000000 5.101515 -0.000000
								CHANNELS 3 Zrotation Yrotation Xrotation
								JOINT HeadEnd
								{
									OFFSET 0.000000 11.655085 0.000000
									CHANNELS 3 Zrotation Yrotation Xrotation
									End Site
									{
										OFFSET 0.000000 0.000000 0.000000
									}
								}
							}
						}
					}
					JOINT RightShoulder
					{
						OFFSET -2.625389 11.175210 0.000000
						CHANNELS 3 Zrotation Yrotation Xrotation
						JOINT RightArm
						{
							OFFSET 0.000000 10.434715 -0.000000
							CHANNELS 3 Zrotation Yrotation Xrotation
							JOINT RightForeArm
							{
								OFFSET -0.000000 29.628420 0.000000
								CHANNELS 3 Zrotation Yrotation Xrotation
								JOINT RightHand
								{
									OFFSET -0.000000 22.857611 0.000000
									CHANNELS 3 Zrotation Yrotation Xrotation
									JOINT RightHandThumb1
									{
										OFFSET -2.867323 3.959563 2.944291
										CHANNELS 3 Zrotation Yrotation Xrotation
										JOINT RightHandThumb2
										{
											OFFSET -0.000000 3.350399 0.000000
											CHANNELS 3 Zrotation Yrotation Xrotation
											JOINT RightHandThumb3
											{
												OFFSET 0.000000 3.756509 -0.000000
												CHANNELS 3 Zrotation Yrotation Xrotation
												JOINT RightHandThumb4
												{
													OFFSET -0.000000 3.147345 0.000000
													CHANNELS 3 Zrotation Yrotation Xrotation
													End Site
													{
														OFFSET 0.000000 0.000000 0.000000
													}
												}
											}
										}
									}
									JOINT RightHandIndex1
									{
										OFFSET -0.086752 10.030893 2.345280
										CHANNELS 3 Zrotation Yrotation Xrotation
										JOINT RightHandIndex2
										{
											OFFSET 0.000000 4.061090 -0.000000
											CHANNELS 3 Zrotation Yrotation Xrotation
											JOINT RightHandIndex3
											{
												OFFSET 0.000000 3.248873 -0.000000
												CHANNELS 3 Zrotation Yrotation Xrotation
												JOINT RightHandIndex4
												{
													OFFSET 0.000000 2.639709 -0.000000
													CHANNELS 3 Zrotation Yrotation Xrotation
													End Site
													{
														OFFSET 0.000000 0.000000 0.000000
													}
												}
											}
										}
									}
									JOINT RightHandMiddle1
									{
										OFFSET 0.104102 9.502952 0.006768
										CHANNELS 3 Zrotation Yrotation Xrotation
										JOINT RightHandMiddle2
										{
											OFFSET 0.000000 4.568727 -0.000000
											CHANNELS 3 Zrotation Yrotation Xrotation
											JOINT RightHandMiddle3
											{
												OFFSET -0.000000 3.654981 0.000000
												CHANNELS 3 Zrotation Yrotation Xrotation
												JOINT RightHandMiddle4
												{
													OFFSET 0.000000 2.741236 0.000000
													CHANNELS 3 Zrotation Yrotation Xrotation
													End Site
													{
														OFFSET 0.000000 0.000000 0.000000
													}
												}
											}
										}
									}
									JOINT RightHandRing1
									{
										OFFSET 0.086752 8.921708 -2.267442
										CHANNELS 3 Zrotation Yrotation Xrotation
										JOINT RightHandRing2
										{
											OFFSET 0.000000 4.061090 -0.000000
											CHANNELS 3 Zrotation Yrotation Xrotation
											JOINT RightHandRing3
											{
												OFFSET -0.000000 3.654981 0.000000
												CHANNELS 3 Zrotation Yrotation Xrotation
												JOINT RightHandRing4
												{
													OFFSET 0.000000 2.741236 -0.000000
													CHANNELS 3 Zrotation Yrotation Xrotation
													End Site
													{
														OFFSET 0.000000 0.000000 0.000000
													}
												}
											}
										}
									}
									JOINT RightHandPinky1
									{
										OFFSET -0.173504 7.976997 -4.467199
										CHANNELS 3 Zrotation Yrotation Xrotation
										JOINT RightHandPinky2
										{
											OFFSET 0.000000 3.350399 0.000000
											CHANNELS 3 Zrotation Yrotation Xrotation
											JOINT RightHandPinky3
											{
												OFFSET 0.000000 2.842763 -0.000000
												CHANNELS 3 Zrotation Yrotation Xrotation
												JOINT RightHandPinky4
												{
													OFFSET -0.000000 2.639709 -0.000000
													CHANNELS 3 Zrotation Yrotation Xrotation
													End Site
													{
														OFFSET 0.000000 0.000000 0.000000
													}
												}
											}
										}
									}
									JOINT RightForeArmEnd
									{
										OFFSET 0.000000 0.000000 0.000000
										CHANNELS 3 Zrotation Yrotation Xrotation
										End Site
										{
											OFFSET 0.000000 0.000000 0.000000
										}
									}
								}
								JOINT RightArmEnd
								{
									OFFSET 0.000000 0.000000 0.000000
									CHANNELS 3 Zrotation Yrotation Xrotation
									End Site
									{
										OFFSET 0.000000 0.000000 0.000000
									}
								}
							}
						}
					}
					JOINT LeftShoulder
					{
						OFFSET 2.625389 11.175210 -0.000000
						CHANNELS 3 Zrotation Yrotation Xrotation
						JOINT LeftArm
						{
							OFFSET -0.000000 10.813635 0.000000
							CHANNELS 3 Zrotation Yrotation Xrotation
							JOINT LeftForeArm
							{
								OFFSET -0.000000 28.724781 0.000000
								CHANNELS 3 Zrotation Yrotation Xrotation
								JOINT LeftHand
								{
									OFFSET 0.644384 25.716167 -0.328871
									CHANNELS 3 Zrotation Yrotation Xrotation
									JOINT LeftHandThumb1
									{
										OFFSET 2.867323 3.959563 2.944291
										CHANNELS 3 Zrotation Yrotation Xrotation
										JOINT LeftHandThumb2
										{
											OFFSET -0.000000 3.350399 0.000000
											CHANNELS 3 Zrotation Yrotation Xrotation
											JOINT LeftHandThumb3
											{
												OFFSET -0.000000 3.756509 -0.000000
												CHANNELS 3 Zrotation Yrotation Xrotation
												JOINT LeftHandThumb4
												{
													OFFSET 0.000000 3.100000 -0.000000
													CHANNELS 3 Zrotation Yrotation Xrotation
													End Site
													{
														OFFSET 0.000000 0.000000 0.000000
													}
												}
											}
										}
									}
									JOINT LeftHandIndex1
									{
										OFFSET 0.086752 10.030893 2.345280
										CHANNELS 3 Zrotation Yrotation Xrotation
										JOINT LeftHandIndex2
										{
											OFFSET -0.000000 4.061090 0.000000
											CHANNELS 3 Zrotation Yrotation Xrotation
											JOINT LeftHandIndex3
											{
												OFFSET 0.000000 3.248873 0.000000
												CHANNELS 3 Zrotation Yrotation Xrotation
												JOINT LeftHandIndex4
												{
													OFFSET 0.000000 2.639709 -0.000000
													CHANNELS 3 Zrotation Yrotation Xrotation
													End Site
													{
														OFFSET 0.000000 0.000000 0.000000
													}
												}
											}
										}
									}
									JOINT LeftHandMiddle1
									{
										OFFSET -0.104102 9.502952 0.006768
										CHANNELS 3 Zrotation Yrotation Xrotation
										JOINT LeftHandMiddle2
										{
											OFFSET 0.000000 4.568727 -0.000000
											CHANNELS 3 Zrotation Yrotation Xrotation
											JOINT LeftHandMiddle3
											{
												OFFSET 0.000000 3.654981 0.000000
												CHANNELS 3 Zrotation Yrotation Xrotation
												JOINT LeftHandMiddle4
												{
													OFFSET -0.000000 2.741236 -0.000000
													CHANNELS 3 Zrotation Yrotation Xrotation
													End Site
													{
														OFFSET 0.000000 0.000000 0.000000
													}
												}
											}
										}
									}
									JOINT LeftHandRing1
									{
										OFFSET -0.086752 8.921708 -2.267442
										CHANNELS 3 Zrotation Yrotation Xrotation
										JOINT LeftHandRing2
										{
											OFFSET -0.000000 4.061090 -0.000000
											CHANNELS 3 Zrotation Yrotation Xrotation
											JOINT LeftHandRing3
											{
												OFFSET 0.000000 3.654981 0.000000
												CHANNELS 3 Zrotation Yrotation Xrotation
												JOINT LeftHandRing4
												{
													OFFSET -0.000000 2.741236 -0.000000
													CHANNELS 3 Zrotation Yrotation Xrotation
													End Site
													{
														OFFSET 0.000000 0.000000 0.000000
													}
												}
											}
										}
									}
									JOINT LeftHandPinky1
									{
										OFFSET 0.173504 7.976997 -4.467199
										CHANNELS 3 Zrotation Yrotation Xrotation
										JOINT LeftHandPinky2
										{
											OFFSET 0.000000 3.350399 0.000000
											CHANNELS 3 Zrotation Yrotation Xrotation
											JOINT LeftHandPinky3
											{
												OFFSET -0.000000 2.842763 -0.000000
												CHANNELS 3 Zrotation Yrotation Xrotation
												JOINT LeftHandPinky4
												{
													OFFSET -0.000000 2.639709 -0.000000
													CHANNELS 3 Zrotation Yrotation Xrotation
													End Site
													{
														OFFSET 0.000000 0.000000 0.000000
													}
												}
											}
										}
									}
									JOINT LeftForeArmEnd
									{
										OFFSET 0.000000 0.000000 0.000000
										CHANNELS 3 Zrotation Yrotation Xrotation
										End Site
										{
											OFFSET 0.000000 0.000000 0.000000
										}
									}
								}
								JOINT LeftArmEnd
								{
									OFFSET 0.000000 0.000000 0.000000
									CHANNELS 3 Zrotation Yrotation Xrotation
									End Site
									{
										OFFSET 0.000000 0.000000 0.000000
									}
								}
							}
						}
					}
				}
			}
		}
	}
	JOINT RightUpLeg
	{
		OFFSET -11.289943 0.000000 0.000000
		CHANNELS 3 Zrotation Yrotation Xrotation
		JOINT RightLeg
		{
			OFFSET -0.000000 -38.200325 -0.000000
			CHANNELS 3 Zrotation Yrotation Xrotation
			JOINT RightFoot
			{
				OFFSET -0.000000 -39.900856 -0.000000
				CHANNELS 3 Zrotation Yrotation Xrotation
				JOINT RightToeBase
				{
					OFFSET 0.000000 0.000000 15.261641
					CHANNELS 3 Zrotation Yrotation Xrotation
					JOINT RightToeBaseEnd
					{
						OFFSET 0.000000 0.000000 7.370709
						CHANNELS 3 Zrotation Yrotation Xrotation
						End Site
						{
							OFFSET 0.000000 0.000000 0.000000
						}
					}
				}
				JOINT RightLegEnd
				{
					OFFSET 0.000000 0.000000 0.000000
					CHANNELS 3 Zrotation Yrotation Xrotation
					End Site
					{
						OFFSET 0.000000 0.000000 0.000000
					}
				}
			}
			JOINT RightUpLegEnd
			{
				OFFSET 0.000000 0.000000 0.000000
				CHANNELS 3 Zrotation Yrotation Xrotation
				End Site
				{
					OFFSET 0.000000 0.000000 0.000000
				}
			}
		}
	}
	JOINT LeftUpLeg
	{
		OFFSET 11.315661 0.000000 -0.000000
		CHANNELS 3 Zrotation Yrotation Xrotation
		JOINT LeftLeg
		{
			OFFSET 0.000000 -38.200325 0.000000
			CHANNELS 3 Zrotation Yrotation Xrotation
			JOINT LeftFoot
			{
				OFFSET 0.000000 -39.900856 -0.000000
				CHANNELS 3 Zrotation Yrotation Xrotation
				JOINT LeftToeBase
				{
					OFFSET 0.000000 0.000000 15.261641
					CHANNELS 3 Zrotation Yrotation Xrotation
					JOINT LeftToeBaseEnd
					{
						OFFSET -0.000000 0.000000 7.539996
						CHANNELS 3 Zrotation Yrotation Xrotation
						End Site
						{
							OFFSET 0.000000 0.000000 0.000000
						}
					}
				}
				JOINT LeftLegEnd
				{
					OFFSET 0.000000 0.000000 0.000000
					CHANNELS 3 Zrotation Yrotation Xrotation
					End Site
					{
						OFFSET 0.000000 0.000000 0.000000
					}
				}
			}
			JOINT LeftUpLegEnd
			{
				OFFSET 0.000000 0.000000 0.000000
				CHANNELS 3 Zrotation Yrotation Xrotation
				End Site
				{
					OFFSET 0.000000 0.000000 0.000000
				}
			}
		}
	}
}
MOTION
Frames: 4
Frame Time: 0.016667
1.603275 88.127502 9.820605 -0.313180 9.394341 -11.445299 1.591423 -0.333083 7.074533 -0.173912 0.095712 2.888127 -1.695044 1.302361 7.692920 -2.555268 0.528731 5.443681 7.276762 -3.128121 1.303835 1.713320 0.433163 -5.344557 0.435910 -0.922015 -16.832741 0.000000 0.000000 0.000000 86.874207 0.467229 15.383832 60.497398 -30.869884 14.303562 -0.778591 16.172720 52.505978 -6.540010 1.792029 -0.774856 16.417643 -2.162028 37.360764 -0.000008 0.000014 -40.457050 0.000025 0.000021 -28.002119 0.000012 -0.000009 -0.000017 42.235836 -0.012806 -8.921331 29.989010 0.013451 -0.227373 29.975906 0.063661 -0.310658 -0.000002 0.000017 -0.000010 42.212341 -0.030625 -7.531578 29.711338 0.015033 -0.130179 29.814608 0.043796 -0.136051 0.000012 -0.000083 0.000017 48.427711 -0.050875 -3.611986 33.342754 -0.009797 0.148005 33.349064 -0.047425 0.154897 0.000010 0.000455 0.000004 49.900070 -0.115913 -1.408463 34.597889 -0.030060 0.644130 34.307556 -0.089832 0.630625 0.001345 -0.000011 -0.000012 0.000000 0.000000 0.000000 0.000000 0.000000 0.000000 -85.405045 0.015928 9.667277 -62.806797 28.299589 2.487887 -0.276890 -8.656244 48.497147 18.931673 4.952808 -11.152429 -17.874649 1.950239 36.870228 0.000007 0.000030 -43.750595 -0.000047 -0.000011 -30.472183 0.001924 -0.000014 0.000715 -47.091080 0.099900 -15.532596 -33.249710 -0.117281 -0.603579 -33.636150 -0.093633 -0.298787 0.000038 0.000500 0.000019 -47.227047 0.038778 -11.985071 -33.822468 -0.057431 -0.181942 -34.080544 -0.026453 -0.101284 0.000586 -0.000045 0.000290 -56.389969 -0.030368 -5.801816 -40.156967 0.066787 0.098974 -39.997536 0.013464 0.070970 0.000394 0.000012 0.000001 -61.177856 -0.106860 -1.058623 -42.663776 0.128781 0.415940 -42.774551 0.064231 0.203297 -0.002353 -0.000013 -0.000019 0.000000 0.000000 0.000000 0.000000 0.000000 0.000000 -11.886656 -8.451269 11.511342 -0.314349 -0.873325 17.879368 8.294001 -16.321529 18.564997 -1.252093 1.254269 -19.886202 0.000000 0.000000 0.000000 0.000000 0.000000 0.000000 0.000000 0.000000 0.000000 -0.321954 -10.040436 0.559816 0.122923 0.071267 21.756826 1.913235 6.431360 14.376545 0.309928 -0.784561 -19.880123 0.000000 0.000000 0.000000 0.000000 0.000000 0.000000 0.000000 0.000000 0.000000 
2.030878 88.116180 9.856090 -0.349093 8.931944 -11.416821 1.530690 -0.306008 7.085207 -0.206198 0.105582 2.823342 -1.753856 1.379085 7.729888 -2.619246 0.541722 5.346892 7.314370 -3.158636 1.297686 1.700197 0.414972 -5.371840 0.431349 -0.913395 -16.741957 0.000000 0.000000 0.000000 86.873184 0.500176 15.503674 59.963287 -30.499840 14.885635 -0.822054 16.211927 54.092419 -6.390218 1.131244 -0.515584 16.362427 -2.155235 37.393475 -0.000008 0.000014 -40.307327 0.000025 0.000021 -27.894552 0.000012 -0.000009 -0.000017 42.059402 -0.010726 -8.845863 29.861162 0.002017 -0.182539 29.849321 0.052767 -0.269668 -0.000002 0.000017 -0.000010 42.052364 -0.030380 -7.462024 29.604053 0.010367 -0.112439 29.715023 0.039627 -0.120720 0.000011 -0.000073 0.000017 48.354362 -0.051082 -3.546424 33.305195 -0.001957 0.125944 33.314335 -0.041543 0.136906 0.000011 0.000372 0.000003 49.886951 -0.113539 -1.368790 34.614983 -0.009950 0.590133 34.320614 -0.073169 0.581575 0.001378 -0.000010 -0.000014 0.000000 0.000000 0.000000 0.000000 0.000000 0.000000 -85.474487 0.006583 9.696281 -63.098289 27.969725 1.907968 -0.305337 -8.602516 48.674458 18.581356 4.807532 -11.040432 -17.982983 1.949795 36.821541 0.000006 0.000029 -44.028179 -0.000047 -0.000011 -30.675514 0.002082 -0.000014 0.000568 -47.708168 0.099935 -15.483395 -33.616768 -0.117685 -0.609674 -34.005238 -0.093502 -0.308025 0.000040 0.000511 0.000019 -47.808010 0.040150 -11.890256 -34.185478 -0.057729 -0.185768 -34.445042 -0.026748 -0.105432 0.000541 -0.000046 0.000302 -56.919102 -0.030190 -5.670395 -40.517548 0.067895 0.104466 -40.347324 0.014358 0.075945 0.000417 0.000012 0.000001 -61.629974 -0.101264 -0.856860 -42.995979 0.131002 0.431348 -43.111202 0.066077 0.220890 -0.002339 -0.000012 -0.000020 0.000000 0.000000 0.000000 0.000000 0.000000 0.000000 -11.809248 -8.125916 11.233392 -0.314030 -0.865484 18.029560 8.180950 -16.269659 18.785206 -1.230936 1.239816 -19.957350 0.000000 0.000000 0.000000 0.000000 0.000000 0.000000 0.000000 0.000000 0.000000 -0.504777 -9.902537 0.774460 0.114047 0.043030 21.592310 2.111434 6.638615 14.303707 0.310109 -0.756458 -19.872894 0.000000 0.000000 0.000000 0.000000 0.000000 0.000000 0.000000 0.000000 0.000000 
2.440037 88.100349 9.885890 -0.383598 8.496144 -11.401196 1.476496 -0.281313 7.109990 -0.231632 0.115031 2.762286 -1.814517 1.439593 7.780919 -2.685098 0.546373 5.243138 7.370739 -3.212365 1.264908 1.684556 0.370565 -5.412143 0.432319 -0.906911 -16.655104 0.000000 0.000000 0.000000 86.883957 0.536746 15.629907 59.428474 -30.088163 15.463196 -0.861924 16.268011 55.476318 -6.312652 0.465414 -0.311465 16.286554 -2.148130 37.435490 -0.000008 0.000013 -40.104275 0.000025 0.000021 -27.749586 0.000012 -0.000009 -0.000017 41.765965 -0.009977 -8.774283 29.666689 -0.010362 -0.138617 29.656626 0.040949 -0.229623 -0.000002 0.000018 -0.000010 41.786057 -0.030560 -7.403881 29.430443 0.005422 -0.095081 29.551228 0.035161 -0.105682 0.000010 -0.000064 0.000017 48.186001 -0.050818 -3.498077 33.203300 0.006805 0.104274 33.214893 -0.035020 0.119320 0.000011 0.000308 0.000002 49.779053 -0.110616 -1.342325 34.571770 0.012655 0.535716 34.271500 -0.054259 0.531840 0.001410 -0.000010 -0.000016 0.000000 0.000000 0.000000 0.000000 0.000000 0.000000 -85.531395 -0.007866 9.751678 -63.422318 27.585920 1.335081 -0.337317 -8.574467 48.843754 18.349836 4.639056 -10.965494 -18.091188 1.948942 36.772739 0.000005 0.000029 -44.307903 -0.000045 -0.000011 -30.878468 0.002222 -0.000014 0.000429 -48.322155 0.098833 -15.414639 -33.975533 -0.117581 -0.611344 -34.365993 -0.092892 -0.313638 0.000042 0.000528 0.000019 -48.389217 0.041173 -11.775743 -34.543758 -0.057754 -0.188119 -34.805901 -0.026839 -0.108483 0.000505 -0.000046 0.000315 -57.451054 -0.029722 -5.520053 -40.878063 0.068645 0.107988 -40.696724 0.015028 0.079601 0.000440 0.000011 0.000001 -62.090023 -0.094808 -0.636904 -43.332535 0.132881 0.442749 -43.449669 0.067526 0.235794 -0.002321 -0.000012 -0.000020 0.000000 0.000000 0.000000 0.000000 0.000000 0.000000 -11.714482 -7.824804 10.956626 -0.313023 -0.855361 18.211550 8.055859 -16.246185 18.967966 -1.209780 1.226644 -20.024235 0.000000 0.000000 0.000000 0.000000 0.000000 0.000000 0.000000 0.000000 0.000000 -0.667183 -9.784581 0.966328 0.105966 0.016930 21.484915 2.291181 6.802393 14.208219 0.307817 -0.730514 -19.863369 0.000000 0.000000 0.000000 0.000000 0.000000 0.000000 0.000000 0.000000 0.000000 
2.831508 88.080460 9.910723 -0.416122 8.092275 -11.394744 1.434679 -0.258541 7.142608 -0.254859 0.125192 2.710752 -1.867841 1.490182 7.836261 -2.753851 0.550745 5.147141 7.419101 -3.274487 1.209700 1.664378 0.308732 -5.464412 0.436354 -0.903138 -16.576578 0.000000 0.000000 0.000000 86.895042 0.572927 15.762124 58.916073 -29.693043 16.002323 -0.895985 16.333067 56.590115 -6.294540 -0.145714 -0.160646 16.193853 -2.141579 37.483822 -0.000008 0.000013 -39.856930 0.000025 0.000021 -27.574762 0.000012 -0.000009 -0.000017 41.368595 -0.010226 -8.717217 29.399488 -0.023543 -0.096676 29.392317 0.028342 -0.191406 -0.000002 0.000018 -0.000010 41.421028 -0.031079 -7.366219 29.182669 0.000215 -0.078534 29.315243 0.030497 -0.091196 0.000009 -0.000057 0.000017 47.917389 -0.050087 -3.475207 33.024364 0.016341 0.083426 33.039043 -0.027993 0.102477 0.000011 0.000246 0.000001 49.575054 -0.107170 -1.338134 34.454018 0.037097 0.482793 34.147549 -0.033667 0.483682 0.001436 -0.000010 -0.000018 0.000000 0.000000 0.000000 0.000000 0.000000 0.000000 -85.583359 -0.023442 9.813146 -63.744812 27.189985 0.814097 -0.373407 -8.562318 48.985844 18.254339 4.396551 -10.920370 -18.192411 1.947657 36.726891 0.000004 0.000028 -44.574139 -0.000042 -0.000010 -31.069780 0.002349 -0.000015 0.000304 -48.914112 0.096705 -15.338362 -34.315960 -0.116785 -0.606417 -34.708477 -0.091623 -0.313785 0.000044 0.000542 0.000019 -48.949100 0.041699 -11.647974 -34.883656 -0.057480 -0.188243 -35.148045 -0.026703 -0.109836 0.000463 -0.000047 0.000327 -57.964165 -0.029086 -5.353629 -41.220627 0.068995 0.108884 -41.026867 0.015447 0.081371 0.000461 0.000011 0.000001 -62.540138 -0.088543 -0.402813 -43.655361 0.133849 0.447199 -43.770306 0.068311 0.245944 -0.002299 -0.000011 -0.000020 0.000000 0.000000 0.000000 0.000000 0.000000 0.000000 -11.601667 -7.540089 10.668415 -0.311640 -0.843581 18.430655 7.913473 -16.224056 19.113415 -1.186871 1.214673 -20.083170 0.000000 0.000000 0.000000 0.000000 0.000000 0.000000 0.000000 0.000000 0.000000 -0.812205 -9.681106 1.141255 0.098709 -0.008304 21.415920 2.457150 6.938995 14.101210 0.303175 -0.705597 -19.853081 0.000000 0.000000 0.000000 0.000000 0.000000 0.000000 0.000000 0.000000 0.000000 
